<svg style='display: none;'>
  <symbol id='logo' width="90" height="88" viewBox="0 0 90 88" fill="none" xmlns="http://www.w3.org/2000/svg">
    <path d="M49.7667 47.1494C45.8486 51.5547 44.5462 57.0043 43.4445 62.5495C43.2806 63.3774 43.1691 64.2292 42.8873 65.0188C42.5848 65.8674 42.4495 67.1347 41.1663 66.9309C39.8226 66.716 39.7111 65.4662 39.3863 64.3311C38.3658 60.7648 39.7589 57.4246 40.1633 53.9953C40.3257 52.6182 40.2206 51.4496 38.9979 50.531C38.0999 49.8543 38.7606 48.9659 39.0393 48.3148C39.4787 47.2911 40.4721 46.6129 39.3991 45.7818C38.0538 44.7406 36.3837 44.6769 35.1005 45.8248C34.2137 46.6176 34.1293 47.8324 35.2915 48.7144C36.2897 49.4722 36.8581 49.9737 35.5956 51.2792C34.634 52.2727 34.349 53.973 33.9016 55.4011C33.4415 56.8674 32.7681 57.1715 31.3113 56.5363C29.5489 55.7657 27.6273 55.9774 25.7614 56.299C21.6952 56.998 17.6816 57.8115 13.9641 54.9235C12.3306 53.6546 10.9391 52.5672 11.8052 50.2635C12.6188 48.103 14.4385 47.7194 16.4047 47.5713C19.6653 47.8069 22.6202 48.8784 25.4238 50.488C27.0669 51.4321 28.9519 52.7933 30.7223 51.5976C32.3892 50.4721 31.6488 48.3371 31.3081 46.6336C30.4978 42.5945 31.9768 40.8129 28.0842 41.6328C26.5924 41.9465 25.997 42.2108 25.3761 40.5678C24.7806 38.9916 26.0416 38.514 27.0016 37.8262C29.2321 36.2309 29.2926 33.518 30.3051 31.2939C30.735 30.3498 31.0821 27.1338 32.4194 26.8441C33.7631 26.5511 33.3571 29.7783 33.9637 30.4565C34.1611 30.6794 34.3283 31.001 34.7375 30.7192C35.5367 30.1683 36.8279 27.1641 37.8325 27.9044C38.9597 28.737 38.1923 32.1186 37.8388 33.2378C36.8486 36.371 37.9996 38.4885 40.7046 39.9675C41.1105 40.1888 41.655 40.1554 42.1343 40.2414C42.217 39.7303 42.3285 39.2224 42.3667 38.7082C42.3826 38.4853 42.2107 38.2545 42.1884 38.022C42.0467 36.5064 42.2186 34.935 43.8473 34.4717C45.0223 34.1374 45.5158 35.5081 45.9536 36.3822C47.5712 39.6109 47.7527 41.0231 51.1995 42.3334C53.36 43.1549 51.0642 45.6895 49.7667 47.1494Z" fill="#F4F5F0"/>
    <path d="M59.0962 53.4142C58.9721 56.4248 57.9945 62.6275 56.4645 65.1764C56.2003 65.619 52.9779 67.4802 52.4796 67.2573C51.5689 66.8513 52.8012 63.2309 52.5815 62.3218C52.4939 61.9573 52.7646 61.2806 52.1739 61.295C51.8157 61.3045 51.3826 61.7742 51.1454 62.1403C50.819 62.6434 50.6805 63.2628 50.4003 63.7993C49.9609 64.6431 49.7221 65.7559 48.4755 65.7559C47.2289 65.7559 46.8627 64.6829 46.4727 63.777C46.2163 63.1847 46.159 62.5081 46.0157 61.8872C46.694 57.5568 48.2638 53.6339 50.6248 50.031C51.1741 49.1936 52.0911 48.6618 53.1021 49.1586C54.1242 49.6617 53.7405 50.6631 53.5845 51.5021C53.4937 51.9925 53.2374 52.4526 53.1482 52.9429C52.9667 53.9491 53.6243 54.7006 54.3216 55.0986C54.968 55.468 55.0014 54.457 55.3644 54.1131C55.6096 53.8807 56.42 50.9863 56.5648 51.0611C57.5615 51.569 59.1456 52.2169 59.0962 53.4142Z" fill="#F4F5F0"/>
    <path d="M88.7025 42.2808C87.6119 40.9514 86.0023 40.1888 84.2876 40.1888C81.8931 40.1888 80.0973 41.6169 79.1389 42.6072C79.0593 42.1407 78.8953 41.4991 78.518 40.8209C77.5659 39.103 75.8035 38.0777 73.8022 38.0777H73.7163C71.75 38.1096 70.0417 39.0983 69.0865 40.7381C68.698 40.1952 68.2204 39.7128 67.6664 39.3068C68.093 38.6636 68.4927 38.0141 68.8763 37.3661C69.2075 36.8041 69.4129 36.6385 69.4543 36.6083C69.475 36.6035 69.5307 36.5939 69.6326 36.5907C71.6848 36.5589 73.9057 36.449 76.4228 36.258C76.4753 36.2548 76.531 36.2548 76.5884 36.2532C77.187 36.2357 78.1884 36.2071 79.2837 35.7899C81.4378 34.97 82.8707 33.0229 83.0235 30.7128C83.1413 28.9376 82.5746 27.2819 81.4283 26.0464C79.521 23.9911 76.8542 23.9672 75.9786 23.9608C75.942 23.9592 75.9054 23.9592 75.8671 23.9592C75.2558 23.9592 74.6747 24.0022 74.1254 24.0675C74.1573 23.351 74.0617 22.6983 73.8357 22.0646C73.3596 20.7289 72.3359 19.659 71.0257 19.1273C70.4589 18.898 69.8714 18.7643 69.2744 18.7277C69.3094 18.6401 69.3412 18.5541 69.3715 18.4697C69.8236 17.1929 70.1054 15.163 68.9034 12.7176C68.9241 12.665 68.9575 12.5902 69.0149 12.4883C69.9016 10.9106 70.8075 8.53042 70.0847 6.15982C69.6294 4.66486 68.6184 3.45647 67.2349 2.75914C66.4596 2.36749 65.5983 2.16052 64.7433 2.16052C63.648 2.16052 61.5735 2.50282 59.9719 4.79222C59.5245 5.43224 59.2109 6.08977 58.98 6.56898C58.9195 6.69475 58.8574 6.8253 58.8224 6.89217C58.1362 8.19927 57.8863 9.46178 57.7048 10.3836C57.6936 10.4409 57.6809 10.5046 57.6681 10.5683C57.6188 10.5969 57.571 10.6272 57.5233 10.659C57.1794 9.67512 56.6412 8.78833 55.9264 8.04961C54.6209 6.69953 52.9317 5.95603 51.1709 5.95603C48.5647 5.95603 46.7815 7.50194 45.8247 8.33141C45.7674 8.38076 45.7117 8.43012 45.6559 8.47629C45.0127 9.02714 44.4635 9.6783 44.0161 10.3963C43.1405 9.91234 42.139 9.64805 41.0612 9.64805C39.9834 9.64805 38.8912 9.91711 37.7847 10.4489C37.5984 10.538 37.4185 10.632 37.2466 10.7291C35.9252 8.74853 35.1928 7.52263 35.3202 6.23146L35.4014 5.39721C35.6434 2.94064 33.7138 0.813629 31.2461 0.813629H29.6126C29.0251 0.813629 28.4472 0.918706 27.9043 1.11931C27.3614 1.31991 26.8519 1.61603 26.4062 1.99654C24.8236 3.34821 22.469 5.3606 22.469 8.47788C22.469 8.62753 22.4737 8.77878 22.4849 8.93321C22.6489 11.2274 23.9957 12.7828 25.4254 13.9132C25.0338 14.9146 24.7472 15.9925 24.5625 17.169C24.2951 18.8646 23.5563 20.4949 22.4833 21.7622C21.5885 22.8193 20.5314 23.5198 19.5841 23.6822C19.28 23.7347 18.7753 23.7395 18.242 23.7443C17.8137 23.7475 17.3281 23.7507 16.8139 23.7809C15.6612 23.8462 14.8111 24.2713 14.4306 24.4766L13.2222 25.0052C10.7767 26.0783 10.1144 29.2401 11.923 31.2032L12.7748 32.1266C12.9786 32.3972 13.1951 32.6424 13.4228 32.8653C14.7378 34.1437 18.2913 36.8964 16.2551 37.4696C16.2344 37.4759 16.2678 37.5126 16.2742 37.5332C15.7217 37.7641 14.9559 38.0348 13.9418 38.299C12.1857 38.7576 10.2275 39.0425 8.83123 39.0425C8.37272 39.0425 8.11639 39.0107 8.01768 38.9948C7.02104 38.6318 6.13585 38.5983 5.66141 38.5792L5.4831 38.5649L4.04227 38.4057C1.7672 38.1573 -0.171951 40.0424 0.0143213 42.3238L0.132135 43.7885V43.8315C0.127359 44.4046 0.114622 45.5971 0.761005 46.8915C1.10489 47.5808 1.09216 48.5249 0.713242 50.3749C0.0429786 53.6403 0.671848 56.9645 2.48363 59.7363C2.76543 60.1662 3.0727 60.5769 3.40067 60.967C2.46452 61.9238 1.77834 63.1609 1.35962 64.6447C0.5811 67.4038 1.25455 70.2838 3.20962 72.5478C4.68388 74.2529 6.82044 75.5822 9.56359 76.4993C10.3501 76.7604 10.8086 76.9562 11.0681 77.0836C11.0856 77.3686 11.0888 77.8573 11.0315 78.6661V78.6772C10.9789 79.0784 10.8723 79.9127 11.0952 80.9173C11.5521 82.979 13.1235 84.5456 15.1963 85.0073C15.5991 85.0965 16.0099 85.1427 16.4159 85.1427C18.7897 85.1427 21.4182 83.557 21.942 80.0162C22.2875 77.6838 23.0039 76.8495 23.6582 76.3417C23.9528 76.114 24.2202 75.8943 24.4813 75.681C24.9096 75.3307 25.314 74.9995 25.6308 74.8037C27.1369 73.8676 28.6462 72.8582 30.0616 71.6896C30.2112 72.024 30.3752 72.3233 30.536 72.5844C31.4053 73.9886 32.7267 75.1158 34.4636 75.9341C35.6529 76.4961 36.874 76.7811 38.0888 76.7811C38.4836 76.7811 38.9215 76.7508 39.3911 76.6696C39.3338 76.8193 39.2765 76.9689 39.2176 77.1218C38.8976 77.9497 38.5664 78.8046 38.2576 79.6978C37.4552 82.019 37.9137 83.7496 38.4406 84.794C39.1284 86.1568 40.3193 87.1614 41.7967 87.6231C42.3396 87.7935 42.8985 87.8794 43.4605 87.8794C45.3614 87.8794 47.1318 86.8796 48.1953 85.2048C48.5631 84.6268 48.8496 83.9741 49.0709 83.2099C49.4244 81.9951 49.7205 80.7008 49.9545 79.3618V79.3523C49.98 79.2138 50.0087 79.0466 50.0405 78.8731C51.2839 78.6422 52.6388 78.2999 53.8647 77.168C53.887 77.1473 53.9092 77.1266 53.9315 77.1059C54.3391 77.5389 54.7371 77.8653 55.0476 78.0914C56.1987 78.9272 57.5376 79.3698 58.9179 79.3698C60.2982 79.3698 61.7025 78.9017 62.8424 78.0134C63.2165 77.7236 63.6018 77.3717 63.968 76.9498C65.0156 77.8812 66.3672 78.3986 67.8128 78.3986C68.0357 78.3986 68.2602 78.3859 68.4831 78.362C68.7856 78.3286 69.0945 78.3111 69.3985 78.3111C71.5749 78.3111 73.7847 79.1803 76.2413 80.2295C77.0548 80.5766 77.9114 80.7533 78.787 80.7533C81.6591 80.7533 84.2176 78.854 85.1553 76.0264C85.6791 74.4455 85.5231 72.8136 84.7159 71.4301C83.4215 69.2108 81.1688 68.7682 80.4284 68.6217C80.4189 68.6201 80.4093 68.6185 80.3998 68.6169C79.1213 68.2746 78.5259 67.7142 78.1406 66.4931C77.2698 63.742 75.6156 61.8028 73.9583 60.1152C73.7147 59.8685 73.5204 59.6583 73.3676 59.4816C73.4727 59.3861 73.5953 59.281 73.7338 59.1648C74.4805 58.5455 75.1857 57.9134 75.8687 57.3004C78.4654 54.9681 80.1705 53.524 82.3867 53.255C84.1889 53.0353 85.5342 52.1278 86.3382 51.5849L86.4465 51.5117C87.2919 50.9433 89.5367 49.4356 89.9411 46.6845C90.1751 45.1004 89.7357 43.5354 88.704 42.2792L88.7025 42.2808ZM83.4582 47.4169C82.8723 47.8101 82.2211 48.2766 81.5556 48.3578C76.7205 48.9452 73.7242 52.5688 70.349 55.3677C66.8051 58.3066 66.9643 60.2808 70.2041 63.5764C71.4905 64.8851 72.64 66.2129 73.2004 67.9833C74.1159 70.8777 76.0471 72.6544 78.9972 73.4138C79.4732 73.5364 80.5335 73.5794 80.2358 74.4758C79.9094 75.4597 78.9128 76.1045 77.9448 75.6921C74.6635 74.2911 71.4444 73.0461 67.7078 73.4584C66.5296 73.5874 66.4054 71.9619 66.7318 70.8936C67.3273 68.9433 67.5995 67.0105 66.8051 65.0682C66.0886 63.3169 65.0394 62.0241 62.8503 62.5193C60.8857 62.9635 60.2473 64.5285 60.1518 66.1906C60.0658 67.6903 60.5052 69.2171 60.6692 70.7376C60.8093 72.016 60.674 73.2674 59.577 74.1207C59.023 74.5506 58.3177 74.5378 57.7143 74.1C56.5521 73.2562 56.4645 72.1593 56.8641 70.8554C57.1682 69.8699 54.6926 70.3634 53.5399 70.0227C52.4445 69.6964 51.4877 70.08 51.1518 71.263C50.3335 74.1542 50.6917 73.6447 47.2512 74.3277C45.5238 74.6716 45.156 76.7986 44.8567 78.5164C44.6625 79.6341 44.4125 80.7469 44.0973 81.8359C43.9492 82.3422 43.6515 83.108 43.037 82.9154C42.3317 82.6941 42.4957 81.8662 42.6883 81.3121C43.3267 79.4669 44.1148 77.6695 44.7118 75.8115C45.4888 73.39 44.1546 71.4285 42.8507 69.6804C42.0069 68.5501 41.0819 69.7298 40.4785 70.4287C39.3115 71.782 37.9758 72.2469 36.3343 71.4731C34.7232 70.7121 33.7599 69.5562 34.1994 67.6251C34.6053 65.8356 34.3984 64.0397 34.1675 62.2534C34.0815 61.5784 33.6405 61.1262 32.9798 61.0243C31.8877 60.8556 31.3559 61.7216 31.0152 62.462C29.283 66.2224 26.1594 68.5214 22.7921 70.6118C21.9436 71.1404 21.1921 71.8281 20.3977 72.4443C18.1592 74.1812 17.2262 76.5916 16.825 79.295C16.7661 79.6962 16.6149 80.3203 16.0338 80.1913C15.502 80.0735 15.6851 79.4956 15.7154 79.096C16.0481 74.5458 15.1963 73.2562 10.893 71.8186C7.10383 70.5545 5.2013 68.3717 5.87475 65.9884C6.38262 64.1894 7.49071 63.3599 9.40279 64.0461C11.1413 64.6686 12.8146 65.4933 14.7187 65.5745C15.865 65.6238 16.8601 65.4153 17.1435 64.1766C17.4268 62.9364 16.8569 61.8904 15.6994 61.4796C14.2379 60.9606 12.6904 60.6852 11.1716 60.3381C7.04652 59.394 4.47213 55.4664 5.31275 51.37C5.77604 49.1092 6.03237 46.8724 4.94179 44.688C4.77463 44.3521 4.85741 43.8888 4.82398 43.4844C5.25862 43.5322 5.72828 43.4876 6.11993 43.642C9.10189 44.8186 19.5857 42.7377 21.0504 39.8609C21.9786 38.0363 20.3993 36.2723 20.4948 34.3634C20.6221 31.8543 19.4965 29.9566 16.7709 29.4137C16.5942 29.3786 16.4652 29.1016 16.314 28.9376C16.4955 28.858 16.6754 28.7179 16.8617 28.7084C17.9713 28.6447 19.1033 28.7339 20.1891 28.546C24.5498 27.7961 28.366 23.246 29.2034 17.9396C29.3897 16.7646 29.7081 15.6581 30.3306 14.5883C31.02 13.4006 31.2938 12.0394 29.8068 11.1C26.3966 8.94436 26.3409 8.34574 29.3786 5.74906H30.1746C32.0087 5.74906 31.7842 11.7623 33.553 14.4354C34.0465 15.1805 33.8507 16.3857 33.9526 17.3824C34.0354 18.207 34.4796 18.7897 35.2215 19.0588C35.9968 19.3406 36.2722 18.6178 36.6209 18.1545C37.5236 16.9557 38.2337 15.596 39.6872 14.8987C40.8845 14.324 41.7824 14.4768 42.1183 15.8619C42.3619 16.8554 42.5339 17.8855 42.5753 18.906C42.7377 22.8941 42.8252 26.8855 42.9701 30.8752C42.9908 31.434 43.1787 32.0756 43.8505 32.125C44.4762 32.1695 44.5351 31.5279 44.6004 31.0822C45.0143 28.2928 46.0683 25.8028 47.888 23.6265C48.7987 22.5391 49.4817 21.2845 49.6902 19.8708C49.8367 18.8773 51.1343 17.5336 48.6474 17.2231C46.936 17.0082 46.9232 13.6887 48.6315 12.2272C49.617 11.385 50.8525 10.1432 52.1452 11.4789C53.4173 12.7956 52.7423 15.7361 50.9225 17.3792C50.0532 18.1657 52.0322 17.9873 52.4382 18.7722C53.5096 20.8451 52.9906 22.5693 51.7775 24.3302C50.7171 25.8665 49.4148 27.2835 49.0757 29.2258C48.7239 31.235 49.3384 33.0102 51.2314 33.6772C53.1849 34.365 54.3105 32.8016 54.8422 31.1697C55.4265 29.3723 55.7815 27.4825 56.0554 25.6054C56.3658 23.4641 57.3911 21.8497 59.1106 20.6143C61.0608 19.2132 61.6436 18.3631 59.6105 17.1897C58.2954 16.4303 59.3621 15.0293 60.2441 14.6551C62.6163 13.6521 61.9492 11.1128 62.9602 9.18476C63.4219 8.30275 63.9632 6.75366 64.7767 7.16442C65.5792 7.5688 65.0235 9.10038 64.4774 10.0715C63.6066 11.6238 63.4203 13.2509 64.2259 14.8621C65.0315 16.4733 64.4822 17.5336 63.0605 18.18C61.7454 18.777 60.7408 19.0954 61.3888 21.0425C62.1498 23.324 60.5195 25.4574 59.4974 27.5032C58.7635 28.9711 57.9738 30.4979 59.0055 32.152C59.55 33.0229 60.2648 33.3063 61.0481 32.3797C63.3264 29.6843 65.5951 26.981 67.8797 24.2904C68.1567 23.964 68.429 23.4959 68.94 23.7029C69.0133 23.7316 68.9002 24.4973 68.7155 24.8349C68.2316 25.7137 67.5008 26.4874 67.1617 27.4092C66.6013 28.9345 67.8877 29.2783 68.9193 29.4582C71.2103 29.8579 73.4217 28.8755 75.7016 28.8946C76.7587 28.9042 77.9544 29.0443 77.8668 30.388C77.7967 31.4404 76.5979 31.278 75.8258 31.3353C73.6621 31.5009 71.4905 31.6219 69.3189 31.6569C66.9754 31.6951 65.5123 32.964 64.3947 34.8522C62.8344 37.4903 61.115 39.958 58.3018 41.4864C56.1382 42.6613 56.0968 46.347 56.0968 46.347C56.0968 46.347 56.1987 47.0379 56.861 48.2384C57.4405 49.2891 59.0739 50.2635 59.593 49.3321C60.1359 48.3594 60.2903 47.2497 60.0722 46.1655C59.9018 45.3265 59.7808 44.6021 60.6326 44.0783C61.7805 43.3746 63.1576 42.5069 64.3198 43.1612C65.5855 43.8745 65.135 45.4873 64.7815 46.7084C64.202 48.7064 62.9363 50.4625 62.7198 52.607C62.6004 53.7804 62.7086 54.898 63.8454 55.4059C64.8261 55.8437 65.5091 54.9824 66.1061 54.3233C67.4164 52.8761 68.6646 51.4559 70.505 50.5325C73.1925 49.1856 72.6241 46.3502 72.9903 43.978C73.0492 43.5959 72.933 43.0227 73.5555 43.0132C74.1413 43.0036 74.0156 43.572 74.1063 43.9127C74.5807 45.6879 74.9613 47.498 77.1424 48.0282C79.3172 48.5568 80.9379 47.7066 82.3596 46.14C82.9662 45.4713 84.0647 44.6912 84.6538 45.4108C85.2604 46.1511 84.1778 46.9345 83.4582 47.4169Z" fill="#F4F5F0"/>
  </symbol>

  <symbol id='instagram' width="24" height="24" viewBox="0 0 24 24" fill="none" xmlns="http://www.w3.org/2000/svg">
    <path d="M7.8 2H16.2C19.4 2 22 4.6 22 7.8V16.2C22 17.7383 21.3889 19.2135 20.3012 20.3012C19.2135 21.3889 17.7383 22 16.2 22H7.8C4.6 22 2 19.4 2 16.2V7.8C2 6.26174 2.61107 4.78649 3.69878 3.69878C4.78649 2.61107 6.26174 2 7.8 2ZM7.6 4C6.64522 4 5.72955 4.37928 5.05442 5.05442C4.37928 5.72955 4 6.64522 4 7.6V16.4C4 18.39 5.61 20 7.6 20H16.4C17.3548 20 18.2705 19.6207 18.9456 18.9456C19.6207 18.2705 20 17.3548 20 16.4V7.6C20 5.61 18.39 4 16.4 4H7.6ZM17.25 5.5C17.5815 5.5 17.8995 5.6317 18.1339 5.86612C18.3683 6.10054 18.5 6.41848 18.5 6.75C18.5 7.08152 18.3683 7.39946 18.1339 7.63388C17.8995 7.8683 17.5815 8 17.25 8C16.9185 8 16.6005 7.8683 16.3661 7.63388C16.1317 7.39946 16 7.08152 16 6.75C16 6.41848 16.1317 6.10054 16.3661 5.86612C16.6005 5.6317 16.9185 5.5 17.25 5.5ZM12 7C13.3261 7 14.5979 7.52678 15.5355 8.46447C16.4732 9.40215 17 10.6739 17 12C17 13.3261 16.4732 14.5979 15.5355 15.5355C14.5979 16.4732 13.3261 17 12 17C10.6739 17 9.40215 16.4732 8.46447 15.5355C7.52678 14.5979 7 13.3261 7 12C7 10.6739 7.52678 9.40215 8.46447 8.46447C9.40215 7.52678 10.6739 7 12 7ZM12 9C11.2044 9 10.4413 9.31607 9.87868 9.87868C9.31607 10.4413 9 11.2044 9 12C9 12.7956 9.31607 13.5587 9.87868 14.1213C10.4413 14.6839 11.2044 15 12 15C12.7956 15 13.5587 14.6839 14.1213 14.1213C14.6839 13.5587 15 12.7956 15 12C15 11.2044 14.6839 10.4413 14.1213 9.87868C13.5587 9.31607 12.7956 9 12 9Z" fill="white"/>
  </symbol>

  <symbol id='tiktok' width="24" height="24" viewBox="0 0 24 24" fill="none" xmlns="http://www.w3.org/2000/svg">
    <path d="M16.6 5.82C15.9166 5.03953 15.5399 4.0374 15.54 3H12.45V15.4C12.4267 16.0712 12.1435 16.7071 11.6603 17.1735C11.1771 17.6399 10.5316 17.9004 9.86 17.9C8.44 17.9 7.26 16.74 7.26 15.3C7.26 13.58 8.92 12.29 10.63 12.82V9.66C7.18 9.2 4.16 11.88 4.16 15.3C4.16 18.63 6.92 21 9.85 21C12.99 21 15.54 18.45 15.54 15.3V9.01C16.793 9.90985 18.2974 10.3926 19.84 10.39V7.3C19.84 7.3 17.96 7.39 16.6 5.82Z" fill="white"/>
  </symbol>

   <symbol id='spotify' width="24" height="24" viewBox="0 0 24 24" fill="none" xmlns="http://www.w3.org/2000/svg">
   <path d="M17.9 10.9C14.7 9 9.35 8.8 6.3 9.75C5.8 9.9 5.3 9.6 5.15 9.15C5 8.65 5.3 8.15 5.75 8C9.3 6.95 15.15 7.15 18.85 9.35C19.3 9.6 19.45 10.2 19.2 10.65C18.95 11 18.35 11.15 17.9 10.9ZM17.8 13.7C17.55 14.05 17.1 14.2 16.75 13.95C14.05 12.3 9.95 11.8 6.8 12.8C6.4 12.9 5.95 12.7 5.85 12.3C5.75 11.9 5.95 11.45 6.35 11.35C10 10.25 14.5 10.8 17.6 12.7C17.9 12.85 18.05 13.35 17.8 13.7ZM16.6 16.45C16.4 16.75 16.05 16.85 15.75 16.65C13.4 15.2 10.45 14.9 6.95 15.7C6.6 15.8 6.3 15.55 6.2 15.25C6.1 14.9 6.35 14.6 6.65 14.5C10.45 13.65 13.75 14 16.35 15.6C16.7 15.75 16.75 16.15 16.6 16.45ZM12 2C10.6868 2 9.38642 2.25866 8.17317 2.7612C6.95991 3.26375 5.85752 4.00035 4.92893 4.92893C3.05357 6.8043 2 9.34784 2 12C2 14.6522 3.05357 17.1957 4.92893 19.0711C5.85752 19.9997 6.95991 20.7362 8.17317 21.2388C9.38642 21.7413 10.6868 22 12 22C14.6522 22 17.1957 20.9464 19.0711 19.0711C20.9464 17.1957 22 14.6522 22 12C22 10.6868 21.7413 9.38642 21.2388 8.17317C20.7362 6.95991 19.9997 5.85752 19.0711 4.92893C18.1425 4.00035 17.0401 3.26375 15.8268 2.7612C14.6136 2.25866 13.3132 2 12 2Z" fill="white"/>
  </symbol>

  <symbol id='apple-music' width="24" height="24" viewBox="0 0 24 24" fill="none" xmlns="http://www.w3.org/2000/svg">
   <path d="M21.995 7.10252C22.0017 6.48827 21.9345 5.87544 21.795 5.27721C21.5308 4.18536 20.91 3.35189 19.9783 2.74096C19.5033 2.43531 18.9712 2.22944 18.4141 2.13586C17.9834 2.06169 17.5478 2.01989 17.1108 2.01084C17.0775 2.00833 17.0416 2.0025 17.0075 2H6.98833C6.86222 2.00778 6.73583 2.015 6.60916 2.02167C5.98666 2.05751 5.3675 2.12419 4.78166 2.35506C3.66833 2.7968 2.865 3.56526 2.39417 4.67211C2.23417 5.04551 2.15083 5.44307 2.09167 5.84564C2.04625 6.17174 2.01843 6.50005 2.00833 6.82914C2.00833 6.85581 2.0025 6.88081 2 6.90665V17.0942L2.0225 17.4476C2.06417 18.1269 2.15083 18.8011 2.43667 19.4254C2.97833 20.6089 3.885 21.3866 5.13166 21.76C5.48166 21.8658 5.845 21.9158 6.20916 21.95C6.67166 21.9942 7.13416 22 7.59833 22H16.79C17.2274 21.9987 17.6643 21.9708 18.0983 21.9167C18.7833 21.8283 19.4283 21.6249 20.0108 21.2415C20.7016 20.7947 21.2462 20.1552 21.5775 19.4021C21.7325 19.052 21.8216 18.6769 21.8858 18.2985C21.98 17.736 22.0008 17.1667 22 16.5983C21.9983 13.4311 22 10.268 21.9975 7.10252H21.995ZM16.6425 10.4281V15.1889C16.6425 15.5364 16.5941 15.8781 16.4391 16.194C16.1975 16.6858 15.8058 16.9958 15.2825 17.1442C14.9914 17.2275 14.6942 17.2756 14.3908 17.2884C13.5992 17.3259 12.9133 16.7883 12.7717 16.0082C12.7122 15.6713 12.7645 15.3243 12.9207 15.02C13.0769 14.7157 13.3283 14.4709 13.6367 14.3229C13.9058 14.1895 14.195 14.1145 14.485 14.0528C14.8 13.9845 15.1167 13.9253 15.43 13.8528C15.6583 13.8003 15.8108 13.6611 15.855 13.4227C15.8657 13.3698 15.8713 13.3159 15.8717 13.2619C15.8717 11.7488 15.8711 10.2367 15.87 8.72529C15.8697 8.67315 15.8624 8.62129 15.8483 8.5711C15.815 8.44607 15.7233 8.36856 15.595 8.37606C15.4616 8.3844 15.33 8.40523 15.1992 8.43107C14.5658 8.55665 13.9325 8.68334 13.2992 8.81114L11.3617 9.20287L10.2167 9.43457L10.1767 9.44541C9.94582 9.50959 9.86249 9.6146 9.85166 9.85381C9.85055 9.88882 9.85055 9.92493 9.85166 9.96216C9.84999 12.1309 9.85166 14.2996 9.84916 16.4674C9.84916 16.8175 9.80999 17.1642 9.66999 17.4901C9.43832 18.0235 9.02833 18.3569 8.47499 18.5178C8.18277 18.6022 7.88416 18.65 7.57916 18.6611C6.77916 18.6911 6.11666 18.161 5.97916 17.3742C5.8625 16.6974 6.17083 15.9698 6.94083 15.6448C7.23833 15.5198 7.54916 15.4514 7.86416 15.3864C8.10333 15.3364 8.34333 15.2897 8.58083 15.2389C8.89971 15.1689 9.06638 14.9705 9.08082 14.6438V14.5188L9.08249 7.11585C9.08249 7.01334 9.09333 6.90749 9.11749 6.80747C9.17583 6.56993 9.34499 6.43407 9.57249 6.37573C9.78499 6.32072 10.0017 6.28238 10.2175 6.23821C10.8286 6.11374 11.4397 5.99039 12.0508 5.86815L13.9425 5.48475L15.6175 5.14886C15.8008 5.11302 15.9858 5.07551 16.17 5.06051C16.4283 5.03967 16.6058 5.2022 16.6316 5.46224C16.6383 5.52337 16.6416 5.58532 16.6416 5.64811C16.6433 7.2406 16.6433 8.83308 16.6416 10.4256L16.6425 10.4281Z" fill="white"/>
  </symbol>

  <symbol id='contact' width="30" height="29" viewBox="0 0 30 29" fill="none" xmlns="http://www.w3.org/2000/svg">
    <path d="M9.5625 5.4375V7.25H20.9716L5.9375 22.2841L7.21592 23.5625L22.25 8.52842V19.9375H24.0625V5.4375H9.5625Z" fill="white"/>
  </symbol>
</svg>